<mxfile host="app.diagrams.net" modified="2023-08-04T07:10:02.154Z" agent="Mozilla/5.0 (Windows NT 10.0; Win64; x64) AppleWebKit/537.36 (KHTML, like Gecko) Chrome/115.0.0.0 Safari/537.36 Edg/115.0.1901.188" etag="NMh3CT3KNsGrjlIk1cAS" version="21.6.6" type="github">
  <diagram id="C5RBs43oDa-KdzZeNtuy" name="Page-1">
    <mxGraphModel dx="1841" dy="661" grid="1" gridSize="10" guides="1" tooltips="1" connect="1" arrows="1" fold="1" page="1" pageScale="1" pageWidth="827" pageHeight="1169" math="0" shadow="0">
      <root>
        <mxCell id="WIyWlLk6GJQsqaUBKTNV-0" />
        <mxCell id="WIyWlLk6GJQsqaUBKTNV-1" parent="WIyWlLk6GJQsqaUBKTNV-0" />
        <mxCell id="ALgLnihAd1x21a2WmlSg-32" value="" style="shape=ext;double=1;rounded=1;whiteSpace=wrap;html=1;strokeColor=default;fontFamily=Helvetica;fontSize=12;fontColor=default;fillColor=default;" vertex="1" parent="WIyWlLk6GJQsqaUBKTNV-1">
          <mxGeometry x="-290" y="570" width="120" height="80" as="geometry" />
        </mxCell>
        <mxCell id="ALgLnihAd1x21a2WmlSg-30" value="" style="rounded=1;whiteSpace=wrap;html=1;movable=1;resizable=1;rotatable=1;deletable=1;editable=1;locked=0;connectable=1;" vertex="1" parent="WIyWlLk6GJQsqaUBKTNV-1">
          <mxGeometry x="330" y="450" width="57.5" height="210" as="geometry" />
        </mxCell>
        <mxCell id="ALgLnihAd1x21a2WmlSg-29" value="" style="rounded=0;whiteSpace=wrap;html=1;movable=1;resizable=1;rotatable=1;deletable=1;editable=1;locked=0;connectable=1;" vertex="1" parent="WIyWlLk6GJQsqaUBKTNV-1">
          <mxGeometry x="-30" y="580" width="120" height="60" as="geometry" />
        </mxCell>
        <mxCell id="L7qs6bnyoF4csV3szs_P-42" value="" style="rounded=0;whiteSpace=wrap;html=1;" parent="WIyWlLk6GJQsqaUBKTNV-1" vertex="1">
          <mxGeometry x="-370" y="140" width="930" height="870" as="geometry" />
        </mxCell>
        <mxCell id="WIyWlLk6GJQsqaUBKTNV-2" value="" style="rounded=0;html=1;jettySize=auto;orthogonalLoop=1;fontSize=11;endArrow=block;endFill=0;endSize=8;strokeWidth=1;shadow=0;labelBackgroundColor=none;edgeStyle=orthogonalEdgeStyle;exitX=0.516;exitY=0.994;exitDx=0;exitDy=0;exitPerimeter=0;" parent="WIyWlLk6GJQsqaUBKTNV-1" source="L7qs6bnyoF4csV3szs_P-1" edge="1">
          <mxGeometry relative="1" as="geometry">
            <mxPoint x="99.58" y="130" as="sourcePoint" />
            <mxPoint x="99.58000000000023" y="180.0000000000001" as="targetPoint" />
            <Array as="points">
              <mxPoint x="100" y="115" />
              <mxPoint x="100" y="148" />
            </Array>
          </mxGeometry>
        </mxCell>
        <mxCell id="L7qs6bnyoF4csV3szs_P-1" value="&lt;font style=&quot;font-size: 36px;&quot;&gt;添加授权&lt;/font&gt;" style="text;html=1;align=center;verticalAlign=middle;resizable=0;points=[];autosize=1;strokeColor=none;fillColor=none;" parent="WIyWlLk6GJQsqaUBKTNV-1" vertex="1">
          <mxGeometry x="15" y="65" width="170" height="60" as="geometry" />
        </mxCell>
        <mxCell id="ALgLnihAd1x21a2WmlSg-38" style="edgeStyle=orthogonalEdgeStyle;rounded=0;orthogonalLoop=1;jettySize=auto;html=1;exitX=0.5;exitY=1;exitDx=0;exitDy=0;exitPerimeter=0;entryX=0.1;entryY=0.5;entryDx=0;entryDy=0;entryPerimeter=0;fontFamily=Helvetica;fontSize=12;fontColor=default;" edge="1" parent="WIyWlLk6GJQsqaUBKTNV-1" source="L7qs6bnyoF4csV3szs_P-5" target="ALgLnihAd1x21a2WmlSg-33">
          <mxGeometry relative="1" as="geometry" />
        </mxCell>
        <mxCell id="L7qs6bnyoF4csV3szs_P-5" value="一。授权管理功能是否下线鉴权？（注：是否允许用户授权，不允许则不能授权操作）" style="strokeWidth=2;html=1;shape=mxgraph.flowchart.decision;whiteSpace=wrap;" parent="WIyWlLk6GJQsqaUBKTNV-1" vertex="1">
          <mxGeometry y="280" width="200" height="150" as="geometry" />
        </mxCell>
        <mxCell id="L7qs6bnyoF4csV3szs_P-7" value="&lt;font style=&quot;font-size: 18px;&quot;&gt;判断语句中没有指定则默认是鉴权失败&lt;/font&gt;" style="rounded=1;whiteSpace=wrap;html=1;" parent="WIyWlLk6GJQsqaUBKTNV-1" vertex="1">
          <mxGeometry x="-320" y="240" width="200" height="160" as="geometry" />
        </mxCell>
        <mxCell id="L7qs6bnyoF4csV3szs_P-24" style="edgeStyle=orthogonalEdgeStyle;rounded=0;orthogonalLoop=1;jettySize=auto;html=1;entryX=0.5;entryY=0;entryDx=0;entryDy=0;entryPerimeter=0;" parent="WIyWlLk6GJQsqaUBKTNV-1" source="L7qs6bnyoF4csV3szs_P-8" target="L7qs6bnyoF4csV3szs_P-5" edge="1">
          <mxGeometry relative="1" as="geometry" />
        </mxCell>
        <mxCell id="L7qs6bnyoF4csV3szs_P-8" value="AuthCheckAspect切面鉴权校验&lt;br style=&quot;border-color: var(--border-color);&quot;&gt;注解、公参等&lt;br&gt;eg:vin、授权用户userId" style="rounded=1;whiteSpace=wrap;html=1;" parent="WIyWlLk6GJQsqaUBKTNV-1" vertex="1">
          <mxGeometry x="10" y="180" width="180" height="60" as="geometry" />
        </mxCell>
        <mxCell id="L7qs6bnyoF4csV3szs_P-9" value="指定被授权用户、其他车辆是否需要检查，为后面其他车辆、被授权用户鉴权" style="rounded=1;whiteSpace=wrap;html=1;" parent="WIyWlLk6GJQsqaUBKTNV-1" vertex="1">
          <mxGeometry x="660" y="750" width="190" height="60" as="geometry" />
        </mxCell>
        <mxCell id="L7qs6bnyoF4csV3szs_P-16" value="这个是仅车辆位置授权" style="text;html=1;align=center;verticalAlign=middle;resizable=0;points=[];autosize=1;strokeColor=none;fillColor=none;" parent="WIyWlLk6GJQsqaUBKTNV-1" vertex="1">
          <mxGeometry x="10" y="28" width="140" height="30" as="geometry" />
        </mxCell>
        <mxCell id="ALgLnihAd1x21a2WmlSg-40" style="edgeStyle=orthogonalEdgeStyle;rounded=0;orthogonalLoop=1;jettySize=auto;html=1;exitX=0.5;exitY=1;exitDx=0;exitDy=0;exitPerimeter=0;entryX=0.267;entryY=0.235;entryDx=0;entryDy=0;entryPerimeter=0;fontFamily=Helvetica;fontSize=12;fontColor=default;" edge="1" parent="WIyWlLk6GJQsqaUBKTNV-1" source="L7qs6bnyoF4csV3szs_P-19" target="L7qs6bnyoF4csV3szs_P-32">
          <mxGeometry relative="1" as="geometry" />
        </mxCell>
        <mxCell id="L7qs6bnyoF4csV3szs_P-19" value="二。是否需要开通云服务鉴权" style="strokeWidth=2;html=1;shape=mxgraph.flowchart.decision;whiteSpace=wrap;" parent="WIyWlLk6GJQsqaUBKTNV-1" vertex="1">
          <mxGeometry x="-360" y="480" width="200" height="150" as="geometry" />
        </mxCell>
        <mxCell id="ALgLnihAd1x21a2WmlSg-44" style="edgeStyle=orthogonalEdgeStyle;rounded=0;orthogonalLoop=1;jettySize=auto;html=1;exitX=0.5;exitY=1;exitDx=0;exitDy=0;exitPerimeter=0;entryX=0.75;entryY=0;entryDx=0;entryDy=0;fontFamily=Helvetica;fontSize=12;fontColor=default;" edge="1" parent="WIyWlLk6GJQsqaUBKTNV-1" source="L7qs6bnyoF4csV3szs_P-29" target="L7qs6bnyoF4csV3szs_P-44">
          <mxGeometry relative="1" as="geometry" />
        </mxCell>
        <mxCell id="L7qs6bnyoF4csV3szs_P-29" value="三、认证车辆车主鉴权" style="strokeWidth=2;html=1;shape=mxgraph.flowchart.decision;whiteSpace=wrap;" parent="WIyWlLk6GJQsqaUBKTNV-1" vertex="1">
          <mxGeometry x="120" y="480" width="200" height="150" as="geometry" />
        </mxCell>
        <mxCell id="L7qs6bnyoF4csV3szs_P-32" value="判断是否有云服务的车（公共方法）&lt;br&gt;（1.若是被授权人则直接开通云服务&lt;br&gt;2.如是其他车辆则判断是否是本人操作的，如果是本人的话也直接开通云服务），这两步主要目的是校验该操作用户是否有云服务的权限。否则没权限操作云服务相关功能。" style="strokeWidth=2;html=1;shape=mxgraph.flowchart.decision;whiteSpace=wrap;fillColor=#fff2cc;strokeColor=#d6b656;" parent="WIyWlLk6GJQsqaUBKTNV-1" vertex="1">
          <mxGeometry x="-295" y="640" width="300" height="270" as="geometry" />
        </mxCell>
        <mxCell id="L7qs6bnyoF4csV3szs_P-33" value="黄色框用云钥匙来debug" style="text;html=1;align=center;verticalAlign=middle;resizable=0;points=[];autosize=1;strokeColor=none;fillColor=none;" parent="WIyWlLk6GJQsqaUBKTNV-1" vertex="1">
          <mxGeometry x="305" y="8" width="150" height="30" as="geometry" />
        </mxCell>
        <mxCell id="ALgLnihAd1x21a2WmlSg-41" style="edgeStyle=orthogonalEdgeStyle;rounded=0;orthogonalLoop=1;jettySize=auto;html=1;exitX=0.5;exitY=1;exitDx=0;exitDy=0;exitPerimeter=0;entryX=0.741;entryY=0.249;entryDx=0;entryDy=0;entryPerimeter=0;fontFamily=Helvetica;fontSize=12;fontColor=default;" edge="1" parent="WIyWlLk6GJQsqaUBKTNV-1" source="L7qs6bnyoF4csV3szs_P-34" target="L7qs6bnyoF4csV3szs_P-32">
          <mxGeometry relative="1" as="geometry" />
        </mxCell>
        <mxCell id="L7qs6bnyoF4csV3szs_P-34" value="四。其他车辆鉴权" style="strokeWidth=2;html=1;shape=mxgraph.flowchart.decision;whiteSpace=wrap;" parent="WIyWlLk6GJQsqaUBKTNV-1" vertex="1">
          <mxGeometry x="-110" y="480" width="200" height="150" as="geometry" />
        </mxCell>
        <mxCell id="L7qs6bnyoF4csV3szs_P-43" value="&lt;font style=&quot;font-size: 72px;&quot;&gt;车辆鉴权&lt;/font&gt;" style="text;html=1;strokeColor=none;fillColor=none;align=center;verticalAlign=middle;whiteSpace=wrap;rounded=0;" parent="WIyWlLk6GJQsqaUBKTNV-1" vertex="1">
          <mxGeometry x="450" y="290" width="100" height="38" as="geometry" />
        </mxCell>
        <mxCell id="ALgLnihAd1x21a2WmlSg-6" style="edgeStyle=orthogonalEdgeStyle;rounded=0;orthogonalLoop=1;jettySize=auto;html=1;exitX=0.5;exitY=1;exitDx=0;exitDy=0;entryX=0.5;entryY=0;entryDx=0;entryDy=0;" edge="1" parent="WIyWlLk6GJQsqaUBKTNV-1" source="L7qs6bnyoF4csV3szs_P-44" target="L7qs6bnyoF4csV3szs_P-45">
          <mxGeometry relative="1" as="geometry" />
        </mxCell>
        <mxCell id="L7qs6bnyoF4csV3szs_P-44" value="&lt;font style=&quot;font-size: 36px;&quot;&gt;鉴权成功&lt;/font&gt;" style="rounded=0;whiteSpace=wrap;html=1;" parent="WIyWlLk6GJQsqaUBKTNV-1" vertex="1">
          <mxGeometry x="-15" y="900" width="190" height="70" as="geometry" />
        </mxCell>
        <mxCell id="ALgLnihAd1x21a2WmlSg-52" value="" style="edgeStyle=orthogonalEdgeStyle;rounded=0;orthogonalLoop=1;jettySize=auto;html=1;fontFamily=Helvetica;fontSize=12;fontColor=default;" edge="1" parent="WIyWlLk6GJQsqaUBKTNV-1" source="L7qs6bnyoF4csV3szs_P-45" target="ALgLnihAd1x21a2WmlSg-51">
          <mxGeometry relative="1" as="geometry" />
        </mxCell>
        <mxCell id="L7qs6bnyoF4csV3szs_P-45" value="&lt;font style=&quot;font-size: 24px;&quot;&gt;可以添加授权&lt;/font&gt;" style="rounded=0;whiteSpace=wrap;html=1;" parent="WIyWlLk6GJQsqaUBKTNV-1" vertex="1">
          <mxGeometry x="-37.809999999999995" y="1060" width="235.62" height="60" as="geometry" />
        </mxCell>
        <mxCell id="ALgLnihAd1x21a2WmlSg-45" style="edgeStyle=orthogonalEdgeStyle;rounded=0;orthogonalLoop=1;jettySize=auto;html=1;exitX=0.5;exitY=1;exitDx=0;exitDy=0;exitPerimeter=0;entryX=1;entryY=0.25;entryDx=0;entryDy=0;fontFamily=Helvetica;fontSize=12;fontColor=default;" edge="1" parent="WIyWlLk6GJQsqaUBKTNV-1" source="ALgLnihAd1x21a2WmlSg-28" target="L7qs6bnyoF4csV3szs_P-44">
          <mxGeometry relative="1" as="geometry" />
        </mxCell>
        <mxCell id="ALgLnihAd1x21a2WmlSg-28" value="五、被授权用户鉴权" style="strokeWidth=2;html=1;shape=mxgraph.flowchart.decision;whiteSpace=wrap;" vertex="1" parent="WIyWlLk6GJQsqaUBKTNV-1">
          <mxGeometry x="360" y="480" width="200" height="150" as="geometry" />
        </mxCell>
        <mxCell id="ALgLnihAd1x21a2WmlSg-33" value="" style="shape=curlyBracket;whiteSpace=wrap;html=1;rounded=1;labelPosition=left;verticalLabelPosition=middle;align=right;verticalAlign=middle;strokeColor=default;fontFamily=Helvetica;fontSize=12;fontColor=default;fillColor=default;rotation=90;" vertex="1" parent="WIyWlLk6GJQsqaUBKTNV-1">
          <mxGeometry x="83.75" y="115" width="32.5" height="695" as="geometry" />
        </mxCell>
        <mxCell id="ALgLnihAd1x21a2WmlSg-39" value="&lt;font style=&quot;font-size: 18px;&quot;&gt;否&lt;/font&gt;" style="text;strokeColor=none;fillColor=none;html=1;fontSize=12;fontStyle=1;verticalAlign=middle;align=center;fontFamily=Helvetica;fontColor=default;" vertex="1" parent="WIyWlLk6GJQsqaUBKTNV-1">
          <mxGeometry x="20" y="420" width="100" height="40" as="geometry" />
        </mxCell>
        <mxCell id="ALgLnihAd1x21a2WmlSg-46" value="&lt;font style=&quot;font-size: 18px;&quot;&gt;是&lt;/font&gt;" style="text;strokeColor=none;fillColor=none;html=1;fontSize=12;fontStyle=1;verticalAlign=middle;align=center;fontFamily=Helvetica;fontColor=default;" vertex="1" parent="WIyWlLk6GJQsqaUBKTNV-1">
          <mxGeometry x="-290" y="620" width="100" height="40" as="geometry" />
        </mxCell>
        <mxCell id="ALgLnihAd1x21a2WmlSg-47" value="&lt;font style=&quot;font-size: 18px;&quot;&gt;是&lt;/font&gt;" style="text;strokeColor=none;fillColor=none;html=1;fontSize=12;fontStyle=1;verticalAlign=middle;align=center;fontFamily=Helvetica;fontColor=default;" vertex="1" parent="WIyWlLk6GJQsqaUBKTNV-1">
          <mxGeometry x="-95" y="610" width="100" height="40" as="geometry" />
        </mxCell>
        <mxCell id="ALgLnihAd1x21a2WmlSg-48" value="&lt;font style=&quot;font-size: 18px;&quot;&gt;是&lt;/font&gt;" style="text;strokeColor=none;fillColor=none;html=1;fontSize=12;fontStyle=1;verticalAlign=middle;align=center;fontFamily=Helvetica;fontColor=default;" vertex="1" parent="WIyWlLk6GJQsqaUBKTNV-1">
          <mxGeometry x="150" y="620" width="100" height="40" as="geometry" />
        </mxCell>
        <mxCell id="ALgLnihAd1x21a2WmlSg-49" value="&lt;font style=&quot;font-size: 18px;&quot;&gt;是&lt;/font&gt;" style="text;strokeColor=none;fillColor=none;html=1;fontSize=12;fontStyle=1;verticalAlign=middle;align=center;fontFamily=Helvetica;fontColor=default;" vertex="1" parent="WIyWlLk6GJQsqaUBKTNV-1">
          <mxGeometry x="387.5" y="620" width="100" height="40" as="geometry" />
        </mxCell>
        <mxCell id="ALgLnihAd1x21a2WmlSg-50" value="&lt;font style=&quot;font-size: 18px;&quot;&gt;是&lt;/font&gt;" style="text;strokeColor=none;fillColor=none;html=1;fontSize=12;fontStyle=1;verticalAlign=middle;align=center;fontFamily=Helvetica;fontColor=default;" vertex="1" parent="WIyWlLk6GJQsqaUBKTNV-1">
          <mxGeometry x="10" y="1010" width="100" height="40" as="geometry" />
        </mxCell>
        <mxCell id="ALgLnihAd1x21a2WmlSg-54" value="" style="edgeStyle=orthogonalEdgeStyle;rounded=0;orthogonalLoop=1;jettySize=auto;html=1;fontFamily=Helvetica;fontSize=12;fontColor=default;" edge="1" parent="WIyWlLk6GJQsqaUBKTNV-1" source="ALgLnihAd1x21a2WmlSg-51" target="ALgLnihAd1x21a2WmlSg-53">
          <mxGeometry relative="1" as="geometry" />
        </mxCell>
        <mxCell id="ALgLnihAd1x21a2WmlSg-51" value="&lt;font style=&quot;font-size: 18px;&quot;&gt;认证车主鉴权，不满足的话设置为其他车辆&lt;/font&gt;" style="rounded=0;whiteSpace=wrap;html=1;strokeColor=default;fontFamily=Helvetica;fontSize=12;fontColor=default;fillColor=default;" vertex="1" parent="WIyWlLk6GJQsqaUBKTNV-1">
          <mxGeometry x="-25" y="1160" width="210" height="80" as="geometry" />
        </mxCell>
        <mxCell id="ALgLnihAd1x21a2WmlSg-56" value="" style="edgeStyle=orthogonalEdgeStyle;rounded=0;orthogonalLoop=1;jettySize=auto;html=1;fontFamily=Helvetica;fontSize=12;fontColor=default;" edge="1" parent="WIyWlLk6GJQsqaUBKTNV-1" source="ALgLnihAd1x21a2WmlSg-53" target="ALgLnihAd1x21a2WmlSg-55">
          <mxGeometry relative="1" as="geometry" />
        </mxCell>
        <mxCell id="ALgLnihAd1x21a2WmlSg-53" value="&lt;font size=&quot;3&quot;&gt;添加授权各种参数校验和限制&lt;br&gt;如：过期时间、nfc蓝牙开关开启、传的100和104是否在授权范围、授权数量、不允许授权自己、校验被授权手机号/用户，新用户的话直接注册&lt;br&gt;&lt;/font&gt;" style="rounded=0;whiteSpace=wrap;html=1;strokeColor=default;fontFamily=Helvetica;fontSize=12;fontColor=default;fillColor=default;" vertex="1" parent="WIyWlLk6GJQsqaUBKTNV-1">
          <mxGeometry x="-77.5" y="1310" width="315" height="140" as="geometry" />
        </mxCell>
        <mxCell id="ALgLnihAd1x21a2WmlSg-58" value="" style="edgeStyle=orthogonalEdgeStyle;rounded=0;orthogonalLoop=1;jettySize=auto;html=1;fontFamily=Helvetica;fontSize=12;fontColor=default;" edge="1" parent="WIyWlLk6GJQsqaUBKTNV-1" source="ALgLnihAd1x21a2WmlSg-55" target="ALgLnihAd1x21a2WmlSg-57">
          <mxGeometry relative="1" as="geometry" />
        </mxCell>
        <mxCell id="ALgLnihAd1x21a2WmlSg-55" value="&lt;font style=&quot;font-size: 18px;&quot;&gt;被授权用户已存在一条有效记录？&lt;/font&gt;" style="strokeWidth=2;html=1;shape=mxgraph.flowchart.decision;whiteSpace=wrap;rounded=1;strokeColor=default;fontFamily=Helvetica;fontSize=12;fontColor=default;fillColor=default;" vertex="1" parent="WIyWlLk6GJQsqaUBKTNV-1">
          <mxGeometry x="-25" y="1490" width="210" height="140" as="geometry" />
        </mxCell>
        <mxCell id="ALgLnihAd1x21a2WmlSg-57" value="&lt;font style=&quot;font-size: 18px;&quot;&gt;授权成功&lt;/font&gt;" style="strokeWidth=2;html=1;shape=mxgraph.flowchart.terminator;whiteSpace=wrap;rounded=1;strokeColor=default;fontFamily=Helvetica;fontSize=12;fontColor=default;fillColor=default;" vertex="1" parent="WIyWlLk6GJQsqaUBKTNV-1">
          <mxGeometry x="30" y="1680" width="100" height="60" as="geometry" />
        </mxCell>
        <mxCell id="ALgLnihAd1x21a2WmlSg-59" value="&lt;font style=&quot;font-size: 18px;&quot;&gt;否&lt;/font&gt;" style="text;strokeColor=none;fillColor=none;html=1;fontSize=12;fontStyle=1;verticalAlign=middle;align=center;fontFamily=Helvetica;fontColor=default;" vertex="1" parent="WIyWlLk6GJQsqaUBKTNV-1">
          <mxGeometry x="50" y="1620" width="100" height="40" as="geometry" />
        </mxCell>
      </root>
    </mxGraphModel>
  </diagram>
</mxfile>
